<svg id="elTCPy0M6Ad1" xmlns="http://www.w3.org/2000/svg" xmlns:xlink="http://www.w3.org/1999/xlink" viewBox="-52.5 0 361 361" shape-rendering="geometricPrecision" text-rendering="geometricPrecision"><g transform="matrix(.743877 0 0 0.743877 26.898499 46.569405)"><path d="M255.555,70.766l-23.241,260.36-104.47,28.962L23.662,331.166L0.445,70.766h255.11Z" fill="#808080"/><path d="M128,337.95l84.417-23.403l19.86-222.49h-104.277v245.893Z" fill="#555"/><path d="M82.82,155.932h45.18v-31.937h-80.083l.764,8.568l7.85,88.01h71.469v-31.937h-42.261L82.82,155.932Zm7.198,80.61h-32.06l4.474,50.146l65.421,18.16.147-.04v-33.228l-.14.037-35.568-9.604-2.274-25.471Z" fill="#ebebeb"/><path d="M24.18,0h16.23v16.035h14.847v-16.035h16.231v48.558h-16.23v-16.26h-14.847v16.26h-16.23v-48.558ZM92.83,16.103h-14.286v-16.103h44.814v16.103h-14.295v32.455h-16.23v-32.455h-.001ZM130.47,0h16.923l10.41,17.062L168.203,0h16.93v48.558h-16.164v-24.068L157.803,41.755h-.28L146.35,24.49v24.068h-15.88v-48.558Zm62.74,0h16.235v32.508h22.824v16.05h-39.06v-48.558Z" fill="#6a6a6a"/><path d="M127.89,220.573h39.327l-3.708,41.42-35.62,9.614v33.226l65.473-18.145.48-5.396l7.506-84.08.779-8.576h-74.237v31.937Zm0-64.719v.078h77.143l.64-7.178l1.456-16.191.763-8.568h-80.002v31.86Z" fill="#fff"/></g><rect width="274.218" height="275.238" rx="0" ry="0" transform="matrix(1.271326 0 0 1.27401-46.623772 4.133428)" fill="rgba(15,16,18,0)" stroke="#808080" stroke-width="10"/><rect width="60.96" height="59.9606" rx="0" ry="0" transform="matrix(1.299036 0 0 1.22765 216.999975 277.169431)" fill="#808080" stroke="#808080"/><g transform="matrix(-1.927228 0 0-1.927228 693.229054 868.072675)"><line x1="-30.948317" y1="-29.980312" x2="30.948317" y2="29.980312" transform="matrix(.422027 0 0 0.39778 228.061 289.095)" fill="#474bff" stroke="#fff" stroke-width="12" stroke-linecap="square"/><line x1="0" y1="-9.209637" x2="0" y2="9.209637" transform="translate(212 284.21)" fill="#474bff" stroke="#fff" stroke-width="5" stroke-linecap="square" stroke-linejoin="round"/><line x1="0" y1="-9.209637" x2="0" y2="9.209637" transform="matrix(.00868-.999962 0.999962 0.00868 221.209 274.08)" fill="#474bff" stroke="#fff" stroke-width="5" stroke-linecap="square" stroke-linejoin="round"/></g></svg>
