<svg id="elT1DVCfAGJ1" xmlns="http://www.w3.org/2000/svg" xmlns:xlink="http://www.w3.org/1999/xlink" viewBox="-51.2 -51.2 614.4 614.4" shape-rendering="geometricPrecision" text-rendering="geometricPrecision"><g transform="matrix(.981351 0 0 1.056669-20.18801-31.354802)"><path d="M204.064,46.682v22.018h-56.302v-68.199h56.302v24.13h-32.172v22.051h32.172Zm57.877-22.051h22.492v-24.13h-56.308c0,0,0,12.112,0,24.13c7.533,7.533,11.461,11.139,22.356,22.034-6.369,0-22.356.022-22.356.021v22.014h56.308v-22.018L261.941,24.631Zm79.805,0h22.49v-24.13h-56.306c0,0,0,12.112,0,24.13c7.531,7.533,11.461,11.139,22.355,22.034-6.365,0-22.355.022-22.355.021v22.014c0,0,56.307,0,56.307,0s0-22.018,0-22.018L341.746,24.631Zm96.649,76.481L404.192,471.598l-148.193,39.9-148.196-39.9L73.605,101.112h364.79Zm-68.918,75.332h-113.612-115.62l5.529,44.739h110.091h6.184l-6.184,2.574-106.067,44.177l3.518,43.73l102.549.333l54.963.175-3.521,58.311-51.442,14.484v-.046l-.422.116-49.684-12.542-3.015-36.195h-.164-46.085-.162l6.032,69.876l93.5,27.649v-.05l.168.05l93-27.146L361.1,267.935h-105.235-.26l.26-.112l109.086-46.639l4.526-44.74Z" transform="matrix(.758677 0 0 0.758677 87.215207 77.723075)" fill="#cf5a56" stroke="#cf5a56"/><rect width="357.399" height="385.576" rx="0" ry="0" transform="matrix(1.690669 0 0 1.454798-20.685184-7.643174)" fill="none" stroke="#cf5a56" stroke-width="15"/><g transform="translate(63.389599 21.338481)"><rect width="51.2" height="51.2" rx="0" ry="0" transform="matrix(2.444942 0 0 2.444942 382.438029 395.487967)" fill="#cf5a56" stroke="#cf5a56"/><g transform="matrix(3.075292 0 0 3.075292-782.309127-819.063829)"><g transform="matrix(.817024 0 0 0.817024 73.858172 76.452876)"><g transform="translate(-3.97996-1.591984)"><g transform="translate(2.963812 3.041502)"><line x1="-25.6" y1="0" x2="25.6" y2="0" transform="matrix(0 0.5431-.5431 0 386.215 412.745)" fill="none" stroke="#fff" stroke-width="10"/><line x1="-25.6" y1="0" x2="25.6" y2="0" transform="matrix(.5431 0 0 0.5431 398.215 401.502)" fill="none" stroke="#fff" stroke-width="10"/><line x1="-9.55704" y1="-8.684987" x2="20.929278" y2="20.057225" transform="matrix(-.801383 0 0-.801383 406.215 420.745)" fill="none" stroke="#fff" stroke-width="7" stroke-linecap="square"/></g></g></g></g></g></g></svg>
