<svg id="ekyzqpBZMtu1" xmlns="http://www.w3.org/2000/svg" xmlns:xlink="http://www.w3.org/1999/xlink" viewBox="0 0 512 512" shape-rendering="geometricPrecision" text-rendering="geometricPrecision"><g transform="matrix(1.303897 0 0 1.276982-97.791735-67.066926)"><path d="M204.064,46.682v22.018h-56.302v-68.199h56.302v24.13h-32.172v22.051h32.172Zm57.877-22.051h22.492v-24.13h-56.308c0,0,0,12.112,0,24.13c7.533,7.533,11.461,11.139,22.356,22.034-6.369,0-22.356.022-22.356.021v22.014h56.308v-22.018L261.941,24.631Zm79.805,0h22.49v-24.13h-56.306c0,0,0,12.112,0,24.13c7.531,7.533,11.461,11.139,22.355,22.034-6.365,0-22.355.022-22.355.021v22.014h56.307v-22.018L341.746,24.631Zm96.649,76.481L404.192,471.598l-148.193,39.9-148.196-39.9L73.605,101.112h364.79Zm-68.918,75.332h-113.612-115.62l5.529,44.739h110.091h6.184l-6.184,2.574-106.067,44.177l3.518,43.73l102.549.333l54.963.175-3.521,58.311-51.442,14.484v-.046l-.422.116-49.684-12.542-3.015-36.195h-.164-46.085-.162l6.032,69.876l93.5,27.649v-.05l.168.05l93-27.146L361.1,267.935h-105.235-.26l.26-.112l109.086-46.639l4.526-44.74Z" transform="matrix(.613489 0 0 0.613489 98.946819 98.946618)" fill="#808080"/><rect width="357.399" height="385.576" rx="0" ry="0" transform="matrix(1.05878 0 0 1 82.130656 60.3252)" fill="none" stroke="#808080" stroke-width="15"/><rect width="51.2" height="51.2" rx="0" ry="0" transform="matrix(1.27738 0 0 1.27738 389.442632 373.536745)" fill="#808080" stroke-width="0"/><g transform="translate(20.707164-9.397152)"><line x1="-20.929278" y1="-20.057225" x2="20.929278" y2="20.057225" transform="matrix(.801383 0 0 0.801383 406.215 420.745)" fill="none" stroke="#fff" stroke-width="7" stroke-linecap="square"/><line x1="-25.6" y1="0" x2="25.6" y2="0" transform="matrix(-.5431 0 0-.5431 398.215 401.502)" fill="none" stroke="#fff" stroke-width="10"/><line x1="-25.6" y1="0" x2="25.6" y2="0" transform="matrix(0-.5431 0.5431 0 386.215 412.745)" fill="none" stroke="#fff" stroke-width="10"/></g></g></svg>
