<!DOCTYPE svg PUBLIC "-//W3C//DTD SVG 1.1//EN" "http://www.w3.org/Graphics/SVG/1.1/DTD/svg11.dtd">
<!-- Uploaded to: SVG Repo, www.svgrepo.com, Transformed by: SVG Repo Mixer Tools -->
<svg version="1.1" id="Layer_1" xmlns="http://www.w3.org/2000/svg" xmlns:xlink="http://www.w3.org/1999/xlink" viewBox="0 0 512.001 512.001" xml:space="preserve" width="800px" height="800px" fill="#000000">
<g id="SVGRepo_bgCarrier" stroke-width="0"/>
<g id="SVGRepo_tracerCarrier" stroke-linecap="round" stroke-linejoin="round"/>
<g id="SVGRepo_iconCarrier"> <g> <rect x="282.823" y="66.331" transform="matrix(0.7071 -0.7071 0.7071 0.7071 18.8485 308.0772)" style="fill:#f2bcba;" width="196.967" height="129.912"/> <rect x="25.528" y="300.83" transform="matrix(-0.7071 0.7071 -0.7071 -0.7071 509.2552 520.6322)" style="fill:#f2bcba;" width="242.547" height="129.912"/> </g> <path style="fill:#CF5A56;" d="M46.166,94.302c-3.72,0-7.436-1.418-10.274-4.256c-5.674-5.674-5.674-14.874,0-20.548l65.241-65.243 c5.674-5.673,14.874-5.674,20.548,0c5.674,5.674,5.674,14.874,0,20.548L56.441,90.046C53.603,92.882,49.885,94.302,46.166,94.302z"/> <rect x="98.061" y="53.362" transform="matrix(-0.7071 -0.7071 0.7071 -0.7071 163.2993 286.2357)" style="fill:#f2bcba;" width="85.741" height="111.871"/> <path style="fill:#CF5A56;" d="M443.204,181.803c0.003-0.003,0.004-0.004,0.007-0.007l63.941-63.941 c5.674-5.674,5.674-14.874,0-20.548L415.286,5.442c-5.675-5.674-14.873-5.674-20.55,0L265.734,134.444l-44.652-44.652 l-60.631-60.631c-0.344-0.344-0.705-0.668-1.078-0.974c-0.262-0.214-0.533-0.404-0.805-0.596c-0.116-0.081-0.225-0.174-0.343-0.251 c-0.336-0.224-0.68-0.423-1.029-0.616c-0.064-0.035-0.124-0.077-0.189-0.112c-0.353-0.187-0.713-0.352-1.077-0.509 c-0.071-0.031-0.138-0.068-0.209-0.097c-0.34-0.139-0.686-0.257-1.033-0.371c-0.105-0.033-0.205-0.077-0.311-0.109 c-0.308-0.093-0.622-0.163-0.934-0.234c-0.151-0.035-0.299-0.08-0.452-0.11c-0.266-0.052-0.535-0.083-0.802-0.119 c-0.203-0.029-0.404-0.068-0.609-0.089c-0.214-0.02-0.429-0.02-0.644-0.032c-0.254-0.013-0.506-0.038-0.761-0.038 c-0.275,0-0.545,0.025-0.818,0.041c-0.195,0.012-0.391,0.01-0.586,0.029c-0.23,0.022-0.456,0.065-0.684,0.099 c-0.241,0.035-0.484,0.061-0.724,0.108c-0.183,0.036-0.363,0.09-0.545,0.134c-0.28,0.067-0.562,0.128-0.838,0.211 c-0.138,0.042-0.272,0.097-0.408,0.142c-0.314,0.105-0.628,0.208-0.936,0.334c-0.106,0.044-0.208,0.099-0.314,0.145 c-0.327,0.144-0.654,0.291-0.972,0.459c-0.11,0.058-0.214,0.129-0.323,0.19c-0.302,0.171-0.604,0.341-0.895,0.536 c-0.182,0.121-0.352,0.259-0.529,0.388c-0.208,0.153-0.42,0.295-0.62,0.459c-0.376,0.307-0.738,0.634-1.084,0.979l-79.101,79.107 c-2.043,2.044-3.416,4.634-3.974,7.426c-0.186,0.931-0.282,1.885-0.282,2.848c0,3.853,1.531,7.55,4.256,10.274l60.631,60.631 c0,0,0.001,0,0.001,0.001l44.651,44.651L4.849,395.33c-5.674,5.674-5.674,14.874,0,20.548l91.866,91.866 c2.724,2.724,6.419,4.256,10.274,4.256c3.855,0,7.55-1.531,10.274-4.256l161.231-161.232l110.091,110.091 c2.658,2.656,6.239,4.18,9.997,4.253l80.649,1.545c0.094,0.001,0.189,0.003,0.283,0.003c7.896,0,14.37-6.323,14.521-14.253 c0.153-8.023-6.226-14.652-14.25-14.805l-74.795-1.433L152.252,179.172l58.556-58.557l44.648,44.648 c0.001,0.001,0.003,0.003,0.004,0.004l91.866,91.866c0.001,0.001,0.001,0.001,0.003,0.003l120.362,120.362 c5.675,5.675,14.876,5.675,20.55,0c5.674-5.674,5.674-14.874,0-20.55L378.15,246.857l65.048-65.048 C443.199,181.807,443.201,181.806,443.204,181.803z M106.988,476.922l-71.316-71.318L186.63,254.646l19.815,19.815l17.145,17.147 c-5.581-3.34-12.914-2.623-17.722,2.185c-5.674,5.674-5.674,14.874,0,20.548l31.85,31.848l-66.783,66.784l-31.85-31.85 c-5.674-5.674-14.874-5.674-20.548,0c-5.674,5.674-5.675,14.874,0,20.548l31.85,31.851L106.988,476.922z M131.703,158.623 l-40.083-40.082l58.557-58.556l40.081,40.081L131.703,158.623z M286.284,154.992L405.011,36.265l71.316,71.318l-43.398,43.398 l-31.85-31.85c-5.675-5.674-14.873-5.674-20.55,0c-5.674,5.674-5.674,14.874,0,20.55l31.85,31.85l-54.78,54.781L286.284,154.992z"/> </g>
</svg>