<svg id="e4eul2IY8mH1" xmlns="http://www.w3.org/2000/svg" xmlns:xlink="http://www.w3.org/1999/xlink" viewBox="0 0 24 24" shape-rendering="geometricPrecision" text-rendering="geometricPrecision"><g transform="matrix(.601627 0 0 0.601627 4.780475 4.780476)"><path d="M22.269,19.385h-20.538c-.458825,0-.898857-.182267-1.223295-.506705s-.506705-.76447-.506705-1.223295v-11.31c0-.955453.774547-1.73,1.73-1.73h20.538c.458825,0,.898857.182267,1.223295.506705s.506705.76447.506705,1.223295v11.308c.000265.458998-.181885.899287-.506352,1.223941s-.76465.507059-1.223648.507059Zm-16.5-3.462v-4.5l2.308,2.885l2.307-2.885v4.5h2.308v-7.845h-2.308L8.077,10.963L5.769,8.078h-2.308v7.847ZM21.231,12h-2.308v-3.923h-2.307v3.923h-2.308l3.461,4.039Z" fill="#808080" stroke="#808080"/></g><rect width="9.646302" height="6.752411" rx="0" ry="0" transform="matrix(2.38 0 0 3.321906 0.5209 0.784563)" fill="none" stroke="#808080" stroke-width="0.4" stroke-miterlimit="2"/><rect width="5.209003" height="5.016077" rx="0" ry="0" transform="translate(17.81442 17.62058)" fill="#808080" stroke-width="0"/><g transform="matrix(-.999985-.005457 0.005457-.999985 40.523898 40.346407)"><line x1="-1.794349" y1="-1.772196" x2="1.209845" y2="1.231998" transform="matrix(.998604 0 0 0.998604 20.506855 20.37749)" fill="none" stroke="#fff" stroke-width="0.5"/><line x1="-1.2" y1="0" x2="1.2" y2="0" transform="matrix(0-1 1 0 18.715011 19.807768)" fill="none" stroke="#fff" stroke-width="0.5" stroke-linejoin="bevel"/><line x1="-1.2" y1="0" x2="1.2" y2="0" transform="matrix(-1 0 0-1 19.915011 18.607768)" fill="none" stroke="#fff" stroke-width="0.5" stroke-linecap="square" stroke-linejoin="bevel"/></g></svg>
