<svg id="e7XklaU0eLC1" xmlns="http://www.w3.org/2000/svg" xmlns:xlink="http://www.w3.org/1999/xlink" viewBox="0 0 32 32" shape-rendering="geometricPrecision" text-rendering="geometricPrecision"><g transform="matrix(1.142857 0 0 1.142857-2.285712-2.285712)"><rect width="28" height="28" rx="1.312" ry="1.312" transform="translate(2 2)" fill="#808080"/><path d="M18.245,23.759v3.068c.557438.275134,1.151503.468777,1.764.575.707796.130668,1.426249.194947,2.146.192.701486.003334,1.401363-.067392,2.088-.211.616484-.124572,1.204673-.361882,1.735-.7.492331-.317809.898119-.752804,1.181-1.266.506616-1.062674.573457-2.282329.186-3.394-.163506-.415715-.407123-.795241-.717-1.117-.332622-.342139-.710453-.637204-1.123-.877-.474957-.278176-.968451-.52342-1.477-.734q-.6-.249-1.08-.484c-.284222-.136082-.556222-.296338-.813-.479-.201114-.14099-.375789-.316342-.516-.518-.121139-.183096-.184221-.398481-.181-.618-.00267-.202036.053628-.400468.162-.571.117703-.178473.274717-.32762.459-.436.22527-.13263.470398-.228183.726-.283.313805-.069713.634561-.103265.956-.1.270339.00093.5403.020309.808.058.289092.039085.575115.098228.856.177.285702.079187.565136.179463.836.3.262834.117162.514242.258433.751.422v-2.863c-.492889-.186477-1.004039-.320549-1.525-.4-.629101-.09154-1.264299-.134666-1.9-.129-.694882-.003742-1.387745.075145-2.064.235-.611255.139678-1.192472.387949-1.716.733-.486323.323967-.887881.759817-1.171,1.271-.300029.567669-.448482,1.203159-.431,1.845-.022157.848786.257412,1.677926.789,2.34.652188.734083,1.474576,1.296879,2.395,1.639q.63.26,1.175.509c.327817.145865.642907.318797.942.517.241242.15693.453113.354925.626.585.152018.208684.232677.460831.23.719.001378.193462-.048293.383865-.144.552-.106345.180676-.255798.33219-.435.441-.22424.136706-.469552.235372-.726.292-.33406.074686-.675728.109927-1.018.105-.671697-.00123-1.338026-.119674-1.969-.35-.659186-.237873-1.270487-.591784-1.805-1.045Zm-5.154-7.638h4v-2.527h-11.153v2.527h3.982v11.254h3.171Z" fill="#fff" fill-rule="evenodd"/></g><line x1="2.44196" y1="2.637042" x2="-3.48804" y2="-2.962958" transform="translate(6.22645 5.48504)" fill="none" stroke="#fff" stroke-linecap="square"/><line x1="-1.74402" y1="0" x2="1.74402" y2="0" transform="translate(4.205282 2.196305)" fill="none" stroke="#fff" stroke-linecap="square"/><line x1="-1.74402" y1="0" x2="1.74402" y2="0" transform="matrix(0 1-1 0 2.446052 3.949039)" fill="none" stroke="#fff" stroke-linecap="square"/></svg>
