<svg id="eAIiQWPZonl1" xmlns="http://www.w3.org/2000/svg" xmlns:xlink="http://www.w3.org/1999/xlink" viewBox="-51.2 -51.2 614.4 614.4" shape-rendering="geometricPrecision" text-rendering="geometricPrecision"><path d="M204.064,46.682v22.018h-56.302v-68.199h56.302v24.13h-32.172v22.051h32.172Zm57.877-22.051h22.492v-24.13h-56.308c0,0,0,12.112,0,24.13c7.533,7.533,11.461,11.139,22.356,22.034-6.369,0-22.356.022-22.356.021v22.014h56.308v-22.018L261.941,24.631Zm79.805,0h22.49v-24.13h-56.306c0,0,0,12.112,0,24.13c7.531,7.533,11.461,11.139,22.355,22.034-6.365,0-22.355.022-22.355.021v22.014h56.307v-22.018L341.746,24.631Zm96.649,76.481L404.192,471.598l-148.193,39.9-148.196-39.9L73.605,101.112h364.79Zm-68.918,75.332h-113.612-115.62l5.529,44.739h110.091h6.184l-6.184,2.574-106.067,44.177l3.518,43.73l102.549.333l54.963.175-3.521,58.311-51.442,14.484v-.046l-.422.116-49.684-12.542-3.015-36.195h-.164-46.085-.162l6.032,69.876l93.5,27.649v-.05l.168.05l93-27.146L361.1,267.935h-105.235-.26l.26-.112l109.086-46.639l4.526-44.74Z" transform="matrix(.887389 0 0 0.887389 28.828417 28.828358)" fill="#cf5a56" stroke="#cf5a56"/><rect width="357.399" height="385.576" rx="0" ry="0" transform="matrix(1.652358 0 0 1.544784-39.275548-42.294072)" fill="none" stroke="#cf5a56" stroke-width="15"/><rect width="51.2" height="51.2" rx="0" ry="0" transform="matrix(2.388381 0 0 2.388381 417.855368 421.583504)" fill="#cf5a56" stroke="#cf5a56"/><g transform="matrix(-2.288411 0 0-2.288411 1592.031624 1539.637821)"><line x1="-25.6" y1="0" x2="25.6" y2="0" transform="matrix(0 0.5431-.5431 0 461.563418 449.038993)" fill="none" stroke="#fff" stroke-width="10"/><line x1="-25.6" y1="0" x2="25.6" y2="0" transform="matrix(.5431 0 0 0.5431 473.563418 437.795993)" fill="none" stroke="#fff" stroke-width="10"/><line x1="-20.929278" y1="-20.057225" x2="20.929278" y2="20.057225" transform="matrix(-.801383 0 0-.801383 481.563418 457.038993)" fill="none" stroke="#fff" stroke-width="7" stroke-linecap="square"/></g></svg>
