<!DOCTYPE svg PUBLIC "-//W3C//DTD SVG 1.1//EN" "http://www.w3.org/Graphics/SVG/1.1/DTD/svg11.dtd">
<!-- Uploaded to: SVG Repo, www.svgrepo.com, Transformed by: SVG Repo Mixer Tools -->
<svg width="800px" height="800px" viewBox="0 0 48 48" id="Layer_2" data-name="Layer 2" xmlns="http://www.w3.org/2000/svg" fill="#cf5a56">
<g id="SVGRepo_bgCarrier" stroke-width="0"/>
<g id="SVGRepo_tracerCarrier" stroke-linecap="round" stroke-linejoin="round"/>
<g id="SVGRepo_iconCarrier">
<defs>
<style>.cls-1{fill:none;stroke:#cf5a56;stroke-linecap:round;stroke-linejoin:round;}</style>
</defs>
<path class="cls-1" d="M27.89,26A1.94,1.94,0,0,0,26,27.89V40.55a1.94,1.94,0,0,0,1.94,2H40.55a2,2,0,0,0,2-2V27.89a1.94,1.94,0,0,0-2-1.94Z"/>
<path class="cls-1" d="M7.45,5.5a2,2,0,0,0-1.95,2V20.11a1.94,1.94,0,0,0,2,1.94H20.11a1.94,1.94,0,0,0,1.94-1.94V7.45A1.94,1.94,0,0,0,20.11,5.5Z"/>
<rect class="cls-1" x="25.95" y="5.5" width="16.55" height="16.55" rx="2.92"/>
<rect class="cls-1" x="5.5" y="25.95" width="16.55" height="16.55" rx="1.95"/>
<line class="cls-1" x1="13.78" y1="8.42" x2="13.78" y2="19.13"/>
<line class="cls-1" x1="8.42" y1="13.78" x2="19.13" y2="13.78"/>
<line class="cls-1" x1="28.87" y1="31.3" x2="39.58" y2="31.3"/>
<line class="cls-1" x1="28.87" y1="37.14" x2="39.58" y2="37.14"/>
</g>
</svg>