<svg id="epb5qiTo0YE1" xmlns="http://www.w3.org/2000/svg" xmlns:xlink="http://www.w3.org/1999/xlink" viewBox="0 0 24 24" shape-rendering="geometricPrecision" text-rendering="geometricPrecision"><g><path d="M18.3301,5.67L6.59009,17.41c-.44.44-1.18001.38-1.54001-.14-1.24-1.81-1.97-3.95-1.97-6.15v-4.39c0-.82.62-1.75,1.38-2.06L10.0301,2.39c1.26-.52,2.66-.52,3.92,0l4.04,1.64999c.67.27.84,1.13001.34,1.63001Z" opacity="0.4" fill="#cf5a56"/><path d="M19.27,7.04012c.65-.55,1.64-.08001,1.64.76999v3.30999c0,4.89-3.55,9.47-8.4,10.81-.33.09-.69.09-1.03,0-1.42-.4-2.74-1.07-3.87-1.95-.48-.37-.52999-1.07-.10999-1.5C9.68001,16.2501,16.06,9.75012,19.27,7.04012Z" fill="#cf5a56"/></g></svg>
