<svg id="eWxliY5aMrf1" xmlns="http://www.w3.org/2000/svg" xmlns:xlink="http://www.w3.org/1999/xlink" viewBox="0 0 24 24" shape-rendering="geometricPrecision" text-rendering="geometricPrecision"><g transform="matrix(.786604 0 0 0.786604 2.560749 2.560752)"><path d="M14,19h2c1.1046,0,2-.8954,2-2v-2.4384c0-.9178.6246-1.7177,1.5149-1.9403l1.515-.3788c.2524-.0631.2524-.4219,0-.485l-1.515-.3788C18.6246,11.1561,18,10.3562,18,9.43845L18,5h-4" fill="none" stroke="#808080" stroke-width="2"/><path d="M10,5h-2C6.89543,5,6,5.89543,6,7v2.43845c0,.91775-.62459,1.71765-1.51493,1.94025l-1.51493.3788c-.25249.0631-.25249.4219,0,.485l1.51493.3788C5.37541,12.8439,6,13.6438,6,14.5616L6,19h4" fill="none" stroke="#808080" stroke-width="2"/></g><rect width="20.713463" height="20.969185" rx="0" ry="0" transform="matrix(1.103734 0 0 1.086305 0.568923 0.610535)" fill="none" stroke="#808080"/><rect width="5.114436" height="4.922644" rx="0" ry="0" transform="translate(17.80769 17.955369)" fill="#808080" stroke-width="0"/><g transform="translate(-1.057219-.961323)"><line x1="-2.207858" y1="-2.187815" x2="0.792142" y2="0.812185" transform="translate(22.129984 22.065828)" fill="none" stroke="#fff" stroke-width="0.5"/><line x1="0" y1="1.093908" x2="0" y2="-1.093907" transform="translate(22.922126 21.784106)" fill="none" stroke="#fff" stroke-width="0.5" stroke-linecap="square"/><line x1="1.103929" y1="-0.000001" x2="-1.103929" y2="0" transform="translate(21.818197 22.878014)" fill="none" stroke="#fff" stroke-width="0.5"/></g></svg>
