<svg id="eg29joP7aJM1" xmlns="http://www.w3.org/2000/svg" xmlns:xlink="http://www.w3.org/1999/xlink" viewBox="0 0 1052 1052" shape-rendering="geometricPrecision" text-rendering="geometricPrecision"><path d="M0,0h1052v1052h-1052Z" fill="#808080"/><path d="M965.9,801.1c-7.7-48-39-88.3-131.7-125.9-32.2-14.8-68.1-25.399-78.8-49.8-3.8-14.2-4.3-22.2-1.9-30.8c6.9-27.9,40.2-36.6,66.6-28.6c17,5.7,33.1,18.801,42.8,39.7c45.4-29.399,45.3-29.2,77-49.399-11.6-18-17.8-26.301-25.4-34-27.3-30.5-64.5-46.2-124-45-10.3,1.3-20.699,2.699-31,4-29.699,7.5-58,23.1-74.6,44-49.8,56.5-35.6,155.399,25,196.1c59.7,44.8,147.4,55,158.6,96.9c10.9,51.3-37.699,67.899-86,62-35.6-7.4-55.399-25.5-76.8-58.4-39.399,22.8-39.399,22.8-79.899,46.1c9.6,21,19.699,30.5,35.8,48.7c76.2,77.3,266.899,73.5,301.1-43.5c1.399-4.001,10.6-30.801,3.199-72.101Zm-394-317.6h-98.4c0,85-.399,169.4-.399,254.4c0,54.1,2.8,103.7-6,118.9-14.4,29.899-51.7,26.2-68.7,20.399-17.3-8.5-26.1-20.6-36.3-37.699-2.8-4.9-4.9-8.7-5.601-9-26.699,16.3-53.3,32.699-80,49c13.301,27.3,32.9,51,58,66.399c37.5,22.5,87.9,29.4,140.601,17.3C509.401,953.199,539,932.5,554.5,901c22.4-41.3,17.6-91.3,17.4-146.6.5-90.2,0-180.4,0-270.9Z" fill="#fff"/><g transform="matrix(1.475249 0 0 1.475249-100.970203-119.813722)"><line x1="-129.528908" y1="-127.276231" x2="129.528908" y2="127.276231" transform="matrix(.708257 0 0 0.708257 212.42741 226.056042)" fill="none" stroke="#fff" stroke-width="40" stroke-linecap="square"/><line x1="-52.6" y1="0" x2="52.6" y2="0" transform="matrix(0-.970022 1 0 317.62741 277.079199)" fill="none" stroke="#fff" stroke-width="30" stroke-linecap="square" stroke-linejoin="round"/><line x1="-52.6" y1="0" x2="52.6" y2="0" transform="matrix(-1 0 0-1 265.02741 328.102356)" fill="none" stroke="#fff" stroke-width="30" stroke-linecap="square" stroke-linejoin="round"/></g></svg>
